# xmcd CD database file generated by OrangeCD 6.1
#
# Track frame offsets:
#	150
#	3072
#	13447
#	25982
#	39979
#	53741
#	71918
#	84953
#	102338
#	116877
#	128263
#	137708
#	155450
#	164792
#
# Disc length: 2403 seconds
#
# Revision: 0
# Processed by: cddbd v1.5.2PL0 Copyright (c) Steve Scherf et al.
# Submitted via: OrangeCD 6.1
#
DISCID=b409610e
DTITLE=Joni Harms - That's Faith
DYEAR=1900
DGENRE=Country
TTITLE0=Oh, How I Love Jesus
TTITLE1=Joseph Built The Cradle
TTITLE2=Far Side Of Jordan
TTITLE3=I'd Rather Have Jesus
TTITLE4=That's Faith
TTITLE5=The Place Where I Worship
TTITLE6=God's Coloring Book
TTITLE7=Never Alone
TTITLE8=Just A Closer Walk With Thee
TTITLE9=Lord, You Lead And I Will Follow
TTITLE10=Jesus Loves Me
TTITLE11=Where I'd Like To Wait
TTITLE12=Send One Up
TTITLE13=She's Still Prayin' For Me
EXTD=
EXTT0=
EXTT1=
EXTT2=
EXTT3=
EXTT4=
EXTT5=
EXTT6=
EXTT7=
EXTT8=
EXTT9=
EXTT10=
EXTT11=
EXTT12=
EXTT13=
PLAYORDER=
